# WaveFront *.obj file (generated by Cinema 4D)

mtllib ./Sphere.mtl

v -57.735027 -57.735027 18.235049
v -65.094455 -39.056673 20.559453
v -70.014004 -14.002801 22.113245
v -70.014004 14.002801 22.113245
v -65.094455 39.056673 20.559453
v -57.735027 57.735027 18.235049
v -39.056673 -65.094455 20.559453
v -45.749571 -45.749571 24.082598
v -50.709255 -16.903085 26.693378
v -50.709255 16.903085 26.693378
v -45.749571 45.749571 24.082598
v -39.056673 65.094455 20.559453
v -14.002801 -70.014004 22.113245
v -16.903085 -50.709255 26.693378
v -19.245009 -19.245009 30.391748
v -19.245009 19.245009 30.391748
v -16.903085 50.709255 26.693378
v -14.002801 70.014004 22.113245
v 14.002801 -70.014004 22.113245
v 16.903085 -50.709255 26.693378
v 19.245009 -19.245009 30.391748
v 19.245009 19.245009 30.391748
v 16.903085 50.709255 26.693378
v 14.002801 70.014004 22.113245
v 39.056673 -65.094455 20.559453
v 45.749571 -45.749571 24.082598
v 50.709255 -16.903085 26.693378
v 50.709255 16.903085 26.693378
v 45.749571 45.749571 24.082598
v 39.056673 65.094455 20.559453
v 57.735027 -57.735027 18.235049
v 65.094455 -39.056673 20.559453
v 70.014004 -14.002801 22.113245
v 70.014004 14.002801 22.113245
v 65.094455 39.056673 20.559453
v 57.735027 57.735027 18.235049
v 65.094455 -65.094455 12.335672
v 76.249285 -45.749571 14.449559
v 84.515425 -16.903085 16.016027
v 84.515425 16.903085 16.016027
v 76.249285 45.749571 14.449559
v 65.094455 65.094455 12.335672
v 70.014004 -70.014004 4.422649
v 84.515425 -50.709255 5.338676
v 96.225045 -19.245009 6.078350
v 96.225045 19.245009 6.078350
v 84.515425 50.709255 5.338676
v 70.014004 70.014004 4.422649
v 70.014004 -70.014004 -4.422649
v 84.515425 -50.709255 -5.338676
v 96.225045 -19.245009 -6.078350
v 96.225045 19.245009 -6.078350
v 84.515425 50.709255 -5.338676
v 70.014004 70.014004 -4.422649
v 65.094455 -65.094455 -12.335672
v 76.249285 -45.749571 -14.449559
v 84.515425 -16.903085 -16.016027
v 84.515425 16.903085 -16.016027
v 76.249285 45.749571 -14.449559
v 65.094455 65.094455 -12.335672
v 57.735027 -57.735027 -18.235049
v 65.094455 -39.056673 -20.559453
v 70.014004 -14.002801 -22.113245
v 70.014004 14.002801 -22.113245
v 65.094455 39.056673 -20.559453
v 57.735027 57.735027 -18.235049
v 39.056673 -65.094455 -20.559453
v 45.749571 -45.749571 -24.082598
v 50.709255 -16.903085 -26.693378
v 50.709255 16.903085 -26.693378
v 45.749571 45.749571 -24.082598
v 39.056673 65.094455 -20.559453
v 14.002801 -70.014004 -22.113245
v 16.903085 -50.709255 -26.693378
v 19.245009 -19.245009 -30.391748
v 19.245009 19.245009 -30.391748
v 16.903085 50.709255 -26.693378
v 14.002801 70.014004 -22.113245
v -14.002801 -70.014004 -22.113245
v -16.903085 -50.709255 -26.693378
v -19.245009 -19.245009 -30.391748
v -19.245009 19.245009 -30.391748
v -16.903085 50.709255 -26.693378
v -14.002801 70.014004 -22.113245
v -39.056673 -65.094455 -20.559453
v -45.749571 -45.749571 -24.082598
v -50.709255 -16.903085 -26.693378
v -50.709255 16.903085 -26.693378
v -45.749571 45.749571 -24.082598
v -39.056673 65.094455 -20.559453
v -57.735027 -57.735027 -18.235049
v -65.094455 -39.056673 -20.559453
v -70.014004 -14.002801 -22.113245
v -70.014004 14.002801 -22.113245
v -65.094455 39.056673 -20.559453
v -57.735027 57.735027 -18.235049
v -65.094455 -65.094455 -12.335672
v -76.249285 -45.749571 -14.449559
v -84.515425 -16.903085 -16.016027
v -84.515425 16.903085 -16.016027
v -76.249285 45.749571 -14.449559
v -65.094455 65.094455 -12.335672
v -70.014004 -70.014004 -4.422649
v -84.515425 -50.709255 -5.338676
v -96.225045 -19.245009 -6.078350
v -96.225045 19.245009 -6.078350
v -84.515425 50.709255 -5.338676
v -70.014004 70.014004 -4.422649
v -70.014004 -70.014004 4.422649
v -84.515425 -50.709255 5.338676
v -96.225045 -19.245009 6.078350
v -96.225045 19.245009 6.078350
v -84.515425 50.709255 5.338676
v -70.014004 70.014004 4.422649
v -65.094455 -65.094455 12.335672
v -76.249285 -45.749571 14.449559
v -84.515425 -16.903085 16.016027
v -84.515425 16.903085 16.016027
v -76.249285 45.749571 14.449559
v -65.094455 65.094455 12.335672
v -45.749571 76.249285 14.449559
v -50.709255 84.515425 5.338676
v -50.709255 84.515425 -5.338676
v -45.749571 76.249285 -14.449559
v -16.903085 84.515425 16.016027
v -19.245009 96.225045 6.078350
v -19.245009 96.225045 -6.078350
v -16.903085 84.515425 -16.016027
v 16.903085 84.515425 16.016027
v 19.245009 96.225045 6.078350
v 19.245009 96.225045 -6.078350
v 16.903085 84.515425 -16.016027
v 45.749571 76.249285 14.449559
v 50.709255 84.515425 5.338676
v 50.709255 84.515425 -5.338676
v 45.749571 76.249285 -14.449559
v -45.749571 -76.249285 -14.449559
v -50.709255 -84.515425 -5.338676
v -50.709255 -84.515425 5.338676
v -45.749571 -76.249285 14.449559
v -16.903085 -84.515425 -16.016027
v -19.245009 -96.225045 -6.078350
v -19.245009 -96.225045 6.078350
v -16.903085 -84.515425 16.016027
v 16.903085 -84.515425 -16.016027
v 19.245009 -96.225045 -6.078350
v 19.245009 -96.225045 6.078350
v 16.903085 -84.515425 16.016027
v 45.749571 -76.249285 -14.449559
v 50.709255 -84.515425 -5.338676
v 50.709255 -84.515425 5.338676
v 45.749571 -76.249285 14.449559
# 152 vertices

vn 0.295283 0.295283 -0.908634
vn 0.306528 0.193861 -0.931911
vn 0.174785 0.174785 -0.968969
vn 0.193861 0.306528 -0.931911
vn 0.058689 0.174889 -0.982837
vn 0.065657 0.310494 -0.948305
vn -0.058254 0.174068 -0.983009
vn -0.065709 0.308734 -0.948876
vn -0.173187 0.173187 -0.969542
vn -0.194012 0.302144 -0.933310
vn -0.302144 0.194012 -0.933310
vn -0.292617 0.292617 -0.910358
vn 0.310494 0.065657 -0.948305
vn 0.174889 0.058689 -0.982838
vn 0.058729 0.058729 -0.996545
vn -0.058513 0.058513 -0.996570
vn -0.174068 0.058254 -0.983009
vn -0.308733 0.065709 -0.948876
vn 0.308733 -0.065709 -0.948876
vn 0.174068 -0.058254 -0.983009
vn 0.058513 -0.058513 -0.996570
vn -0.058729 -0.058729 -0.996545
vn -0.174889 -0.058689 -0.982837
vn -0.310494 -0.065657 -0.948305
vn 0.302144 -0.194012 -0.933310
vn 0.173187 -0.173187 -0.969542
vn 0.058254 -0.174068 -0.983009
vn -0.058689 -0.174889 -0.982838
vn -0.174785 -0.174785 -0.968969
vn -0.306528 -0.193861 -0.931911
vn 0.292617 -0.292617 -0.910358
vn 0.194012 -0.302144 -0.933310
vn 0.065709 -0.308733 -0.948876
vn -0.065657 -0.310494 -0.948305
vn -0.193861 -0.306528 -0.931911
vn -0.295283 -0.295283 -0.908634
vn -0.493837 0.279930 -0.823264
vn -0.421164 0.421164 -0.803269
vn -0.602627 0.338516 -0.722667
vn -0.507743 0.507743 -0.695984
vn -0.707107 0.707107 0.000000
vn -0.877455 0.479660 0.000000
vn -0.509473 0.509473 0.693451
vn -0.607419 0.336015 0.719817
vn -0.499442 0.277680 0.820641
vn -0.423456 0.423456 0.800856
vn -0.306528 0.193861 0.931911
vn -0.295283 0.295283 0.908634
vn -0.518439 0.096990 -0.849597
vn -0.640488 0.118768 -0.758729
vn -0.984175 0.177197 0.000000
vn -0.642227 0.117961 0.757383
vn -0.520465 0.096304 0.848435
vn -0.310494 0.065657 0.948305
vn -0.520466 -0.096304 -0.848435
vn -0.642227 -0.117961 -0.757383
vn -0.984175 -0.177197 0.000000
vn -0.640488 -0.118768 0.758729
vn -0.518439 -0.096990 0.849597
vn -0.308733 -0.065709 0.948876
vn -0.499442 -0.277680 -0.820641
vn -0.607419 -0.336015 -0.719817
vn -0.877455 -0.479660 0.000000
vn -0.602627 -0.338516 0.722667
vn -0.493838 -0.279930 0.823264
vn -0.302144 -0.194012 0.933310
vn -0.423456 -0.423456 -0.800856
vn -0.509473 -0.509473 -0.693451
vn -0.707107 -0.707107 0.000000
vn -0.507743 -0.507743 0.695984
vn -0.421164 -0.421164 0.803269
vn -0.292617 -0.292617 0.910358
vn -0.174785 0.174785 0.968969
vn -0.193861 0.306528 0.931911
vn -0.058689 0.174889 0.982837
vn -0.065657 0.310494 0.948305
vn 0.058254 0.174068 0.983009
vn 0.065709 0.308733 0.948876
vn 0.173187 0.173187 0.969542
vn 0.194012 0.302144 0.933310
vn 0.302144 0.194012 0.933310
vn 0.292617 0.292617 0.910358
vn -0.174889 0.058689 0.982838
vn -0.058729 0.058729 0.996545
vn 0.058513 0.058513 0.996570
vn 0.174068 0.058254 0.983009
vn 0.308733 0.065709 0.948876
vn -0.174068 -0.058254 0.983009
vn -0.058513 -0.058513 0.996570
vn 0.058729 -0.058729 0.996545
vn 0.174889 -0.058689 0.982837
vn 0.310494 -0.065657 0.948305
vn -0.173187 -0.173187 0.969542
vn -0.058254 -0.174068 0.983009
vn 0.058689 -0.174889 0.982838
vn 0.174785 -0.174785 0.968969
vn 0.306528 -0.193861 0.931911
vn -0.194012 -0.302144 0.933310
vn -0.065709 -0.308734 0.948876
vn 0.065657 -0.310494 0.948305
vn 0.193861 -0.306528 0.931911
vn 0.295283 -0.295283 0.908634
vn 0.493837 0.279930 0.823264
vn 0.421164 0.421164 0.803269
vn 0.602627 0.338516 0.722667
vn 0.507743 0.507743 0.695984
vn 0.707107 0.707107 0.000000
vn 0.877455 0.479660 0.000000
vn 0.509473 0.509473 -0.693451
vn 0.607419 0.336015 -0.719817
vn 0.499442 0.277680 -0.820641
vn 0.423456 0.423456 -0.800856
vn 0.518439 0.096990 0.849597
vn 0.640488 0.118768 0.758729
vn 0.984175 0.177197 0.000000
vn 0.642227 0.117961 -0.757383
vn 0.520465 0.096304 -0.848435
vn 0.520466 -0.096304 0.848435
vn 0.642227 -0.117961 0.757383
vn 0.984175 -0.177197 0.000000
vn 0.640488 -0.118768 -0.758729
vn 0.518439 -0.096990 -0.849597
vn 0.499442 -0.277680 0.820641
vn 0.607419 -0.336015 0.719817
vn 0.877455 -0.479660 0.000000
vn 0.602627 -0.338516 -0.722667
vn 0.493838 -0.279930 -0.823264
vn 0.423456 -0.423456 0.800856
vn 0.509473 -0.509473 0.693451
vn 0.707107 -0.707107 0.000000
vn 0.507743 -0.507743 -0.695984
vn 0.421164 -0.421164 -0.803269
vn 0.279930 -0.493837 -0.823264
vn 0.096990 -0.518439 -0.849596
vn -0.096304 -0.520466 -0.848435
vn -0.277680 -0.499442 -0.820641
vn 0.338516 -0.602627 -0.722667
vn 0.118768 -0.640488 -0.758729
vn -0.117961 -0.642227 -0.757383
vn -0.336015 -0.607419 -0.719817
vn 0.479660 -0.877455 0.000000
vn 0.177197 -0.984175 0.000000
vn -0.177197 -0.984175 0.000000
vn -0.479660 -0.877455 0.000000
vn 0.277680 -0.499442 0.820641
vn 0.336015 -0.607419 0.719817
vn 0.096304 -0.520465 0.848435
vn 0.117961 -0.642227 0.757383
vn -0.096990 -0.518439 0.849597
vn -0.118768 -0.640488 0.758729
vn -0.279930 -0.493838 0.823264
vn -0.338516 -0.602627 0.722667
vn 0.279930 0.493837 0.823264
vn 0.096990 0.518439 0.849596
vn -0.096304 0.520466 0.848435
vn -0.277680 0.499442 0.820641
vn 0.338516 0.602627 0.722667
vn 0.118768 0.640488 0.758729
vn -0.117961 0.642227 0.757383
vn -0.336015 0.607419 0.719817
vn 0.479660 0.877455 0.000000
vn 0.177197 0.984175 0.000000
vn -0.177197 0.984175 0.000000
vn -0.479660 0.877455 0.000000
vn 0.277680 0.499442 -0.820641
vn 0.336015 0.607419 -0.719817
vn 0.096304 0.520465 -0.848435
vn 0.117961 0.642227 -0.757383
vn -0.096990 0.518439 -0.849597
vn -0.118768 0.640488 -0.758729
vn -0.279930 0.493838 -0.823264
vn -0.338516 0.602627 -0.722667
# 172 normals

vt 0.000000 0.000000 0.000000
vt 0.000000 0.200000 0.000000
vt 0.200000 0.200000 0.000000
vt 0.200000 0.000000 0.000000
vt 0.400000 0.200000 0.000000
vt 0.400000 0.000000 0.000000
vt 0.600000 0.200000 0.000000
vt 0.600000 0.000000 0.000000
vt 0.800000 0.200000 0.000000
vt 0.800000 0.000000 0.000000
vt 1.000000 0.200000 0.000000
vt 1.000000 0.000000 0.000000
vt 0.000000 0.400000 0.000000
vt 0.200000 0.400000 0.000000
vt 0.400000 0.400000 0.000000
vt 0.600000 0.400000 0.000000
vt 0.800000 0.400000 0.000000
vt 1.000000 0.400000 0.000000
vt 0.000000 0.600000 0.000000
vt 0.200000 0.600000 0.000000
vt 0.400000 0.600000 0.000000
vt 0.600000 0.600000 0.000000
vt 0.800000 0.600000 0.000000
vt 1.000000 0.600000 0.000000
vt 0.000000 0.800000 0.000000
vt 0.200000 0.800000 0.000000
vt 0.400000 0.800000 0.000000
vt 0.600000 0.800000 0.000000
vt 0.800000 0.800000 0.000000
vt 1.000000 0.800000 0.000000
vt 0.000000 1.000000 0.000000
vt 0.200000 1.000000 0.000000
vt 0.400000 1.000000 0.000000
vt 0.600000 1.000000 0.000000
vt 0.800000 1.000000 0.000000
vt 1.000000 1.000000 0.000000
# 36 texture coordinates

o Sphere
usemtl default
f 1/1/1 2/2/2 8/3/3 7/4/4
f 7/4/4 8/3/3 14/5/5 13/6/6
f 13/6/6 14/5/5 20/7/7 19/8/8
f 19/8/8 20/7/7 26/9/9 25/10/10
f 25/10/10 26/9/9 32/11/11 31/12/12
f 2/2/2 3/13/13 9/14/14 8/3/3
f 8/3/3 9/14/14 15/15/15 14/5/5
f 14/5/5 15/15/15 21/16/16 20/7/7
f 20/7/7 21/16/16 27/17/17 26/9/9
f 26/9/9 27/17/17 33/18/18 32/11/11
f 3/13/13 4/19/19 10/20/20 9/14/14
f 9/14/14 10/20/20 16/21/21 15/15/15
f 15/15/15 16/21/21 22/22/22 21/16/16
f 21/16/16 22/22/22 28/23/23 27/17/17
f 27/17/17 28/23/23 34/24/24 33/18/18
f 4/19/19 5/25/25 11/26/26 10/20/20
f 10/20/20 11/26/26 17/27/27 16/21/21
f 16/21/21 17/27/27 23/28/28 22/22/22
f 22/22/22 23/28/28 29/29/29 28/23/23
f 28/23/23 29/29/29 35/30/30 34/24/24
f 5/25/25 6/31/31 12/32/32 11/26/26
f 11/26/26 12/32/32 18/33/33 17/27/27
f 17/27/27 18/33/33 24/34/34 23/28/28
f 23/28/28 24/34/34 30/35/35 29/29/29
f 29/29/29 30/35/35 36/36/36 35/30/30
f 31/1/12 32/2/11 38/3/37 37/4/38
f 37/4/38 38/3/37 44/5/39 43/6/40
f 43/6/41 44/5/42 50/7/42 49/8/41
f 49/8/43 50/7/44 56/9/45 55/10/46
f 55/10/46 56/9/45 62/11/47 61/12/48
f 32/2/11 33/13/18 39/14/49 38/3/37
f 38/3/37 39/14/49 45/15/50 44/5/39
f 44/5/42 45/15/51 51/16/51 50/7/42
f 50/7/44 51/16/52 57/17/53 56/9/45
f 56/9/45 57/17/53 63/18/54 62/11/47
f 33/13/18 34/19/24 40/20/55 39/14/49
f 39/14/49 40/20/55 46/21/56 45/15/50
f 45/15/51 46/21/57 52/22/57 51/16/51
f 51/16/52 52/22/58 58/23/59 57/17/53
f 57/17/53 58/23/59 64/24/60 63/18/54
f 34/19/24 35/25/30 41/26/61 40/20/55
f 40/20/55 41/26/61 47/27/62 46/21/56
f 46/21/57 47/27/63 53/28/63 52/22/57
f 52/22/58 53/28/64 59/29/65 58/23/59
f 58/23/59 59/29/65 65/30/66 64/24/60
f 35/25/30 36/31/36 42/32/67 41/26/61
f 41/26/61 42/32/67 48/33/68 47/27/62
f 47/27/63 48/33/69 54/34/69 53/28/63
f 53/28/64 54/34/70 60/35/71 59/29/65
f 59/29/65 60/35/71 66/36/72 65/30/66
f 61/1/48 62/2/47 68/3/73 67/4/74
f 67/4/74 68/3/73 74/5/75 73/6/76
f 73/6/76 74/5/75 80/7/77 79/8/78
f 79/8/78 80/7/77 86/9/79 85/10/80
f 85/10/80 86/9/79 92/11/81 91/12/82
f 62/2/47 63/13/54 69/14/83 68/3/73
f 68/3/73 69/14/83 75/15/84 74/5/75
f 74/5/75 75/15/84 81/16/85 80/7/77
f 80/7/77 81/16/85 87/17/86 86/9/79
f 86/9/79 87/17/86 93/18/87 92/11/81
f 63/13/54 64/19/60 70/20/88 69/14/83
f 69/14/83 70/20/88 76/21/89 75/15/84
f 75/15/84 76/21/89 82/22/90 81/16/85
f 81/16/85 82/22/90 88/23/91 87/17/86
f 87/17/86 88/23/91 94/24/92 93/18/87
f 64/19/60 65/25/66 71/26/93 70/20/88
f 70/20/88 71/26/93 77/27/94 76/21/89
f 76/21/89 77/27/94 83/28/95 82/22/90
f 82/22/90 83/28/95 89/29/96 88/23/91
f 88/23/91 89/29/96 95/30/97 94/24/92
f 65/25/66 66/31/72 72/32/98 71/26/93
f 71/26/93 72/32/98 78/33/99 77/27/94
f 77/27/94 78/33/99 84/34/100 83/28/95
f 83/28/95 84/34/100 90/35/101 89/29/96
f 89/29/96 90/35/101 96/36/102 95/30/97
f 91/1/82 92/2/81 98/3/103 97/4/104
f 97/4/104 98/3/103 104/5/105 103/6/106
f 103/6/107 104/5/108 110/7/108 109/8/107
f 109/8/109 110/7/110 116/9/111 115/10/112
f 115/10/112 116/9/111 2/11/2 1/12/1
f 92/2/81 93/13/87 99/14/113 98/3/103
f 98/3/103 99/14/113 105/15/114 104/5/105
f 104/5/108 105/15/115 111/16/115 110/7/108
f 110/7/110 111/16/116 117/17/117 116/9/111
f 116/9/111 117/17/117 3/18/13 2/11/2
f 93/13/87 94/19/92 100/20/118 99/14/113
f 99/14/113 100/20/118 106/21/119 105/15/114
f 105/15/115 106/21/120 112/22/120 111/16/115
f 111/16/116 112/22/121 118/23/122 117/17/117
f 117/17/117 118/23/122 4/24/19 3/18/13
f 94/19/92 95/25/97 101/26/123 100/20/118
f 100/20/118 101/26/123 107/27/124 106/21/119
f 106/21/120 107/27/125 113/28/125 112/22/120
f 112/22/121 113/28/126 119/29/127 118/23/122
f 118/23/122 119/29/127 5/30/25 4/24/19
f 95/25/97 96/31/102 102/32/128 101/26/123
f 101/26/123 102/32/128 108/33/129 107/27/124
f 107/27/125 108/33/130 114/34/130 113/28/125
f 113/28/126 114/34/131 120/35/132 119/29/127
f 119/29/127 120/35/132 6/36/31 5/30/25
f 6/1/31 120/2/132 121/3/133 12/4/32
f 12/4/32 121/3/133 125/5/134 18/6/33
f 18/6/33 125/5/134 129/7/135 24/8/34
f 24/8/34 129/7/135 133/9/136 30/10/35
f 30/10/35 133/9/136 42/11/67 36/12/36
f 120/2/132 114/13/131 122/14/137 121/3/133
f 121/3/133 122/14/137 126/15/138 125/5/134
f 125/5/134 126/15/138 130/16/139 129/7/135
f 129/7/135 130/16/139 134/17/140 133/9/136
f 133/9/136 134/17/140 48/18/68 42/11/67
f 114/13/130 108/19/130 123/20/141 122/14/141
f 122/14/141 123/20/141 127/21/142 126/15/142
f 126/15/142 127/21/142 131/22/143 130/16/143
f 130/16/143 131/22/143 135/23/144 134/17/144
f 134/17/144 135/23/144 54/24/69 48/18/69
f 108/19/129 102/25/128 124/26/145 123/20/146
f 123/20/146 124/26/145 128/27/147 127/21/148
f 127/21/148 128/27/147 132/28/149 131/22/150
f 131/22/150 132/28/149 136/29/151 135/23/152
f 135/23/152 136/29/151 60/30/71 54/24/70
f 102/25/128 96/31/102 90/32/101 124/26/145
f 124/26/145 90/32/101 84/33/100 128/27/147
f 128/27/147 84/33/100 78/34/99 132/28/149
f 132/28/149 78/34/99 72/35/98 136/29/151
f 136/29/151 72/35/98 66/36/72 60/30/71
f 91/1/82 97/2/104 137/3/153 85/4/80
f 85/4/80 137/3/153 141/5/154 79/6/78
f 79/6/78 141/5/154 145/7/155 73/8/76
f 73/8/76 145/7/155 149/9/156 67/10/74
f 67/10/74 149/9/156 55/11/46 61/12/48
f 97/2/104 103/13/106 138/14/157 137/3/153
f 137/3/153 138/14/157 142/15/158 141/5/154
f 141/5/154 142/15/158 146/16/159 145/7/155
f 145/7/155 146/16/159 150/17/160 149/9/156
f 149/9/156 150/17/160 49/18/43 55/11/46
f 103/13/107 109/19/107 139/20/161 138/14/161
f 138/14/161 139/20/161 143/21/162 142/15/162
f 142/15/162 143/21/162 147/22/163 146/16/163
f 146/16/163 147/22/163 151/23/164 150/17/164
f 150/17/164 151/23/164 43/24/41 49/18/41
f 109/19/109 115/25/112 140/26/165 139/20/166
f 139/20/166 140/26/165 144/27/167 143/21/168
f 143/21/168 144/27/167 148/28/169 147/22/170
f 147/22/170 148/28/169 152/29/171 151/23/172
f 151/23/172 152/29/171 37/30/38 43/24/40
f 115/25/112 1/31/1 7/32/4 140/26/165
f 140/26/165 7/32/4 13/33/6 144/27/167
f 144/27/167 13/33/6 19/34/8 148/28/169
f 148/28/169 19/34/8 25/35/10 152/29/171
f 152/29/171 25/35/10 31/36/12 37/30/38

