{
	"asset":{
		"version":"2.0",
		"generator":"Created using the official Cinema 4D glTF Exporter 1.000x284978"
	},
	"scenes":[{
		"nodes":[0,
		1,
		3]
	}],
	"nodes":[{
		"name":"Camera",
		"translation":[460.47210693359377,
		360.4422912597656,
		-1184.217041015625],
		"rotation":[-0.007159302476793528,
		0.9826947450637817,
		0.038877151906490329,
		0.1809651255607605],
		"scale":[1.0,
		1.0,
		1.0],
		"camera":0
	},
	{
		"name":"leaf1",
		"translation":[0.0,
		0.0,
		0.0],
		"rotation":[0.0,
		0.0,
		0.13961385190486909,
		-0.9902060031890869],
		"scale":[1.0,
		1.0,
		1.0],
		"children":[2]
	},
	{
		"name":"Plane",
		"translation":[2.842170943040401e-14,
		246.7593536376953,
		0.0],
		"rotation":[0.0,
		0.0,
		0.0,
		-1.0],
		"scale":[1.0,
		1.0,
		1.0],
		"mesh":0
	},
	{
		"name":"leaf2",
		"translation":[0.0,
		0.0,
		0.0],
		"rotation":[0.0,
		0.0,
		0.13961385190486909,
		0.9902060031890869],
		"scale":[1.0,
		1.0,
		1.0],
		"children":[4]
	},
	{
		"name":"Plane",
		"translation":[0.0,
		246.7593536376953,
		0.0],
		"rotation":[0.0,
		0.0,
		0.0,
		-1.0],
		"scale":[1.0,
		1.0,
		1.0],
		"mesh":1
	}],
	"meshes":[{
		"name":"Plane",
		"primitives":[{
			"attributes":{
				"POSITION":1
			},
			"indices":0
		}]
	},
	{
		"name":"Plane",
		"primitives":[{
			"attributes":{
				"POSITION":3
			},
			"indices":2
		}]
	}],
	"cameras":[{
		"type":"perspective",
		"perspective":{
			"znear":0.009999999776482582,
			"zfar":10000000000.0,
			"aspectRatio":1.7777777910232545,
			"yfov":0.5483348965644836
		}
	}],
	"accessors":[{
		"bufferView":0,
		"type":"SCALAR",
		"max":[1325],
		"componentType":5123,
		"count":7500,
		"byteOffset":0,
		"min":[0]
	},
	{
		"bufferView":1,
		"type":"VEC3",
		"max":[158.65426635742188,
		263.64117431640627,
		1.2731715834232437e-19],
		"componentType":5126,
		"count":1326,
		"byteOffset":0,
		"min":[-158.65426635742188,
		-271.2365417480469,
		-1.3065483211397583e-19]
	},
	{
		"bufferView":2,
		"type":"SCALAR",
		"max":[1325],
		"componentType":5123,
		"count":7500,
		"byteOffset":0,
		"min":[0]
	},
	{
		"bufferView":3,
		"type":"VEC3",
		"max":[158.65426635742188,
		263.64117431640627,
		1.2731715834232437e-19],
		"componentType":5126,
		"count":1326,
		"byteOffset":0,
		"min":[-158.65426635742188,
		-271.2365417480469,
		-1.3065483211397583e-19]
	}],
	"bufferViews":[{
		"buffer":0,
		"byteOffset":0,
		"byteLength":15000,
		"target":34963
	},
	{
		"buffer":0,
		"byteOffset":15000,
		"byteLength":15912,
		"target":34962
	},
	{
		"buffer":1,
		"byteOffset":0,
		"byteLength":15000,
		"target":34963
	},
	{
		"buffer":1,
		"byteOffset":15000,
		"byteLength":15912,
		"target":34962
	}],
	"buffers":[{
		"uri":"data:application/octet-stream;base64,",
		"byteLength":30912
	},
	{
		"uri":"data:application/octet-stream;base64,",
		"byteLength":30912
	}]
}